<svg xmlns="http://www.w3.org/2000/svg" width="50" height="50" viewBox="0 0 50 50">
    <path d="M 5 7 C 2.2504839 7 0 9.2504839 0 12 L 0 38 C 0 40.749516 2.2504839 43 5 43 L 45 43 C 47.749516 43 50 40.749516 50 38 L 50 12 C 50 9.2504839 47.749516 7 45 7 L 5 7 z M 5 9 L 45 9 C 46.668484 9 48 10.331516 48 12 L 48 38 C 48 39.668484 46.668484 41 45 41 L 5 41 C 3.3315161 41 2 39.668484 2 38 L 2 12 C 2 10.331516 3.3315161 9 5 9 z M 17 13 C 10.383 13 5 18.383 5 25 C 5 31.617 10.383 37 17 37 C 20.077895 37 22.873654 35.818064 25 33.90625 C 27.123964 35.817609 29.924706 37 33 37 C 39.615466 37 45 31.615466 45 25 C 45 18.384534 39.615466 13 33 13 C 29.924706 13 27.123535 14.182208 25 16.09375 C 22.873654 14.181936 20.077895 13 17 13 z M 33 15 C 38.534534 15 43 19.465466 43 25 C 43 30.534534 38.534534 35 33 35 C 30.447547 35 28.110801 34.067565 26.34375 32.5 C 27.996967 30.443286 29 27.838131 29 25 C 29 22.161869 27.996967 19.556714 26.34375 17.5 C 28.110157 15.93261 30.447547 15 33 15 z"/>
</svg>