<svg xmlns="http://www.w3.org/2000/svg" width="50" height="50" viewBox="0 0 50 50">
    <path style="text-indent:0;text-align:start;line-height:normal;text-transform:none;block-progression:tb;-inkscape-font-specification:Bitstream Vera Sans" d="M 5 7 C 2.2504839 7 0 9.2504839 0 12 L 0 38 C 0 40.749516 2.2504839 43 5 43 L 45 43 C 47.749516 43 50 40.749516 50 38 L 50 12 C 50 9.2504839 47.749516 7 45 7 L 5 7 z M 5 9 L 45 9 C 46.668484 9 48 10.331516 48 12 L 48 38 C 48 39.668484 46.668484 41 45 41 L 5 41 C 3.3315161 41 2 39.668484 2 38 L 2 12 C 2 10.331516 3.3315161 9 5 9 z M 29.6875 19.40625 C 26.5855 19.40625 25 20.933 25 22.875 C 25 26.385 29.0625 25.91375 29.0625 27.71875 C 29.0625 28.02475 28.827 28.75 27.125 28.75 C 25.419 28.75 24.3125 28.09375 24.3125 28.09375 L 23.78125 30.46875 C 23.78125 30.46875 24.887 31.09375 27 31.09375 C 29.113 31.09375 32.03125 29.477 32.03125 27.125 C 32.03025 24.298 27.96875 24.0725 27.96875 22.8125 C 27.96875 22.1685 28.4705 21.6875 29.9375 21.6875 C 30.8905 21.6875 31.96875 22.40625 31.96875 22.40625 L 32.46875 19.96875 C 32.46875 19.96875 31.0525 19.40625 29.6875 19.40625 z M 16.46875 19.625 L 13.78125 27.5625 C 13.78125 27.5625 13.59625 26.88775 13.53125 26.46875 C 11.99425 23.02475 9.5 21.75 9.5 21.75 L 11.875 30.75 L 15.125 30.75 L 19.625 19.625 L 16.46875 19.625 z M 20.78125 19.625 L 19.03125 30.75 L 22 30.75 L 23.78125 19.625 L 20.78125 19.625 z M 36.8125 19.625 L 31.96875 30.75 L 34.90625 30.75 L 35.5 29.15625 L 39.1875 29.15625 L 39.5 30.75 L 42.1875 30.75 L 39.90625 19.625 L 36.8125 19.625 z M 6.25 19.65625 C 6.25 19.65625 12.05325 21.4525 13.40625 25.8125 L 12.40625 20.75 C 12.40625 20.75 11.9785 19.65625 10.8125 19.65625 L 6.25 19.65625 z M 37.9375 22.84375 L 38.75 27.03125 L 36.3125 27.03125 L 37.9375 22.84375 z" color="#000" overflow="visible" enable-background="accumulate" font-family="Bitstream Vera Sans"/>
</svg>